<?xml version="1.0" encoding="UTF-8" standalone="no"?><!-- Generator: Gravit.io --><svg xmlns="http://www.w3.org/2000/svg" xmlns:xlink="http://www.w3.org/1999/xlink" style="isolation:isolate" viewBox="586.166 410.468 81.907 50.11" width="81.907pt" height="50.11pt"><defs><clipPath id="_clipPath_6GCxMPpOSl4TW8RctyoOeIru019AG4mZ"><rect x="586.166" y="410.468" width="81.907" height="50.11"/></clipPath></defs><g clip-path="url(#_clipPath_6GCxMPpOSl4TW8RctyoOeIru019AG4mZ)"><g><g><path d=" M 636.314 428.577 C 631.113 430.754 625.535 431.888 619.897 431.915 C 612.355 431.932 604.937 429.987 598.375 426.269 C 597.841 425.959 597.445 426.507 597.892 426.911 C 603.804 432.195 611.471 435.091 619.4 435.037 C 625.341 435.037 632.248 433.177 637.007 429.68 C 637.799 429.103 637.121 428.238 636.314 428.577 Z " fill-rule="evenodd" fill="rgb(0,0,0)"/><path d=" M 633.307 426.609 C 632.889 426.897 632.961 427.33 633.43 427.251 C 634.959 427.064 638.376 426.66 638.989 427.431 C 639.602 428.202 638.311 431.404 637.734 432.831 C 637.561 433.264 637.936 433.437 638.325 433.112 C 640.877 430.949 641.541 426.529 641.022 425.902 C 640.503 425.275 636.033 424.705 633.307 426.609 Z " fill-rule="evenodd" fill="rgb(0,0,0)"/><path d=" M 642.63 421.223 C 641.164 420.468 639.525 420.118 637.879 420.206 L 642.205 414.077 C 642.516 413.741 642.737 413.332 642.847 412.887 L 642.847 411.301 C 642.847 411.042 642.637 410.832 642.379 410.832 C 642.374 410.832 642.369 410.832 642.364 410.832 L 634.007 410.832 C 633.756 410.824 633.546 411.021 633.538 411.271 C 633.538 411.281 633.538 411.291 633.538 411.3 L 633.538 413.153 C 633.534 413.408 633.737 413.618 633.992 413.622 C 633.999 413.622 634.007 413.622 634.014 413.622 L 638.34 413.622 L 633.336 420.76 C 633.104 421.141 632.996 421.584 633.026 422.029 L 633.026 423.911 C 633.026 424.178 633.329 424.488 633.617 424.336 C 636.382 422.915 639.663 422.915 642.428 424.336 C 642.738 424.502 643.041 424.185 643.041 423.911 L 643.041 421.943 C 643.038 421.648 642.883 421.375 642.63 421.223 Z " fill-rule="evenodd" fill="rgb(0,0,0)"/><path d=" M 649.999 410.595 C 646.329 410.595 644.296 413.731 644.296 417.762 C 644.296 421.793 646.308 424.972 649.999 424.972 C 653.554 424.972 655.767 421.836 655.767 417.884 C 655.824 413.811 653.762 410.595 649.999 410.595 Z  M 649.999 422.311 C 648.009 422.311 648.038 418.937 648.038 417.35 C 648.038 415.764 648.153 413.24 650.021 413.24 C 650.809 413.187 651.516 413.722 651.679 414.495 C 651.973 415.614 652.101 416.771 652.061 417.927 C 652.061 419.586 651.967 422.311 649.999 422.311 Z " fill-rule="evenodd" fill="rgb(0,0,0)"/><path d=" M 622.124 416.832 C 620.448 417.506 619.367 419.15 619.413 420.956 C 619.413 423.58 621.079 424.893 623.213 424.893 C 624.82 424.982 626.374 424.299 627.395 423.054 C 627.776 423.692 628.264 424.261 628.837 424.734 C 629.032 424.841 629.272 424.818 629.443 424.676 C 629.443 424.676 630.885 423.443 631.39 423.01 C 631.575 422.829 631.579 422.532 631.398 422.347 C 631.395 422.344 631.393 422.342 631.39 422.339 C 630.789 421.706 630.449 420.869 630.438 419.996 L 630.438 416.066 C 630.438 414.4 630.553 412.872 629.32 411.74 C 628.251 410.882 626.912 410.432 625.542 410.471 C 623.127 410.471 620.437 411.365 619.868 414.336 C 619.822 414.579 619.982 414.812 620.224 414.858 C 620.233 414.86 620.241 414.861 620.25 414.862 L 622.68 415.122 C 622.896 415.122 623.105 414.913 623.156 414.632 C 623.371 413.701 624.237 413.068 625.189 413.147 C 625.746 413.127 626.28 413.37 626.631 413.803 C 627.064 414.38 626.941 415.966 626.941 415.966 C 625.419 416.125 623.494 416.233 622.124 416.832 Z  M 626.414 421.223 C 626.083 421.896 625.411 422.336 624.662 422.369 C 623.689 422.369 623.119 421.648 623.119 420.545 C 623.119 418.382 625.059 418 626.89 418 L 626.89 418.548 C 626.986 419.466 626.821 420.393 626.414 421.223 Z " fill-rule="evenodd" fill="rgb(0,0,0)"/><path d=" M 598.143 422.34 C 597.539 421.708 597.197 420.871 597.184 419.997 L 597.184 416.067 C 597.184 414.401 597.307 412.873 596.074 411.741 C 594.992 410.878 593.636 410.433 592.253 410.486 C 589.838 410.486 587.141 411.38 586.579 414.351 C 586.533 414.594 586.693 414.827 586.935 414.873 C 586.944 414.875 586.952 414.876 586.961 414.877 L 589.384 415.137 C 589.608 415.137 589.817 414.928 589.867 414.647 C 590.082 413.719 590.943 413.087 591.893 413.162 C 592.45 413.144 592.983 413.387 593.335 413.818 C 593.768 414.395 593.645 415.981 593.645 415.981 C 592.203 416.147 590.249 416.255 588.872 416.853 C 587.199 417.529 586.121 419.173 586.168 420.977 C 586.168 423.601 587.826 424.914 589.968 424.914 C 591.573 425.001 593.123 424.318 594.143 423.075 C 594.526 423.712 595.013 424.28 595.585 424.755 C 595.777 424.861 596.015 424.838 596.183 424.697 C 596.183 424.697 597.625 423.464 598.137 423.031 C 598.33 422.847 598.337 422.541 598.153 422.348 C 598.149 422.346 598.146 422.343 598.143 422.34 Z  M 593.168 421.223 C 592.836 421.899 592.161 422.338 591.409 422.369 C 590.436 422.369 589.866 421.648 589.866 420.545 C 589.866 418.382 591.806 418 593.644 418 L 593.644 418.548 C 593.74 419.466 593.575 420.393 593.168 421.223 Z " fill-rule="evenodd" fill="rgb(0,0,0)"/><path d=" M 600.609 424.712 L 603.14 424.712 C 603.401 424.708 603.612 424.497 603.616 424.236 L 603.616 417.379 C 603.616 415.879 603.544 413.774 605.368 413.774 C 607.192 413.774 606.933 415.937 606.933 417.379 L 606.933 424.243 C 606.94 424.493 607.137 424.697 607.387 424.712 L 609.918 424.712 C 610.181 424.72 610.4 424.514 610.408 424.251 C 610.408 424.249 610.408 424.246 610.408 424.244 L 610.408 417.38 C 610.354 416.546 610.435 415.708 610.646 414.9 C 610.895 414.277 611.49 413.861 612.16 413.84 C 612.881 413.737 613.548 414.237 613.652 414.958 C 613.738 415.763 613.762 416.572 613.724 417.381 L 613.724 424.245 C 613.731 424.495 613.928 424.699 614.178 424.714 L 616.709 424.714 C 616.972 424.722 617.191 424.516 617.199 424.253 C 617.199 424.251 617.199 424.248 617.199 424.246 L 617.199 416.077 C 617.199 414.685 617.365 413.106 616.557 412.018 C 615.272 410.395 612.914 410.12 611.29 411.406 C 610.764 411.823 610.359 412.373 610.118 412.999 C 609.397 411.362 608.409 410.598 606.823 410.598 C 605.294 410.54 603.921 411.53 603.492 412.999 L 603.442 412.999 L 603.442 411.338 C 603.438 411.078 603.226 410.869 602.966 410.869 L 600.608 410.869 C 600.348 410.869 600.136 411.078 600.132 411.338 L 600.132 424.237 C 600.137 424.498 600.348 424.709 600.609 424.712 Z " fill-rule="evenodd" fill="rgb(0,0,0)"/><path d=" M 664.476 410.595 C 662.724 410.595 661.729 411.439 661.022 413.212 L 660.972 413.212 L 660.972 411.236 C 660.923 411.014 660.723 410.86 660.496 410.868 L 658.153 410.868 C 657.894 410.868 657.684 411.078 657.684 411.337 L 657.684 411.337 L 657.684 424.236 C 657.684 424.496 657.893 424.708 658.153 424.712 L 660.691 424.712 C 660.951 424.708 661.16 424.496 661.16 424.236 L 661.16 417.271 C 661.117 416.427 661.257 415.583 661.571 414.798 C 661.831 414.222 662.383 413.833 663.013 413.781 C 663.597 413.781 664.599 413.86 664.599 416.478 L 664.599 424.301 C 664.63 424.528 664.818 424.7 665.046 424.712 L 667.591 424.712 C 667.833 424.718 668.041 424.541 668.074 424.301 L 668.074 416.175 C 668.074 414.92 668.074 413.176 667.418 412.145 C 666.783 411.142 665.663 410.552 664.476 410.595 Z " fill-rule="evenodd" fill="rgb(0,0,0)"/><path d=" M 606.494 443.288 C 604.166 443.351 601.918 444.154 600.077 445.58 C 599.369 444.051 598.008 443.288 595.996 443.288 C 593.809 443.362 591.697 444.104 589.942 445.411 L 589.747 444.385 C 589.729 444.198 589.645 444.025 589.507 443.898 C 589.355 443.807 589.18 443.764 589.003 443.774 L 587.613 443.774 C 587.304 443.726 587.014 443.938 586.967 444.248 C 586.959 444.305 586.959 444.363 586.967 444.421 L 586.967 459.467 C 586.924 459.777 587.142 460.063 587.451 460.106 C 587.505 460.113 587.559 460.113 587.613 460.105 L 589.524 460.105 C 589.834 460.151 590.122 459.939 590.169 459.63 C 590.178 459.575 590.178 459.521 590.17 459.467 L 590.17 447.288 C 591.577 446.371 593.217 445.877 594.896 445.863 C 595.632 445.8 596.354 446.089 596.843 446.641 C 597.304 447.346 597.519 448.183 597.455 449.023 L 597.455 459.467 C 597.412 459.777 597.629 460.063 597.939 460.106 C 597.993 460.113 598.047 460.113 598.101 460.105 L 600.003 460.105 C 600.318 460.151 600.61 459.934 600.656 459.62 C 600.664 459.569 600.665 459.518 600.659 459.467 L 600.659 447.766 C 600.669 447.604 600.669 447.442 600.659 447.279 C 602.082 446.364 603.73 445.862 605.421 445.827 C 606.155 445.762 606.876 446.052 607.359 446.606 C 607.827 447.307 608.045 448.146 607.979 448.987 L 607.979 459.432 C 607.936 459.741 608.153 460.027 608.463 460.07 C 608.517 460.078 608.571 460.078 608.625 460.069 L 610.536 460.069 C 610.846 460.116 611.134 459.903 611.181 459.594 C 611.189 459.54 611.189 459.486 611.182 459.432 L 611.182 448.119 C 611.257 446.829 610.828 445.56 609.988 444.579 C 609.064 443.666 607.79 443.195 606.494 443.288 Z " fill-rule="evenodd" fill="rgb(0,0,0)"/><path d=" M 629.038 443.775 L 627.126 443.775 C 626.817 443.727 626.527 443.939 626.48 444.249 C 626.472 444.306 626.472 444.364 626.48 444.422 L 626.48 456.468 C 625.102 457.439 623.465 457.978 621.78 458.018 C 620.97 458.09 620.169 457.787 619.612 457.194 C 619.1 456.444 618.859 455.542 618.931 454.636 L 618.931 444.421 C 618.979 444.111 618.766 443.822 618.457 443.775 C 618.399 443.766 618.341 443.766 618.284 443.775 L 616.372 443.775 C 616.063 443.727 615.773 443.939 615.727 444.249 C 615.718 444.306 615.718 444.364 615.727 444.422 L 615.727 455.663 C 615.648 456.982 616.09 458.278 616.957 459.275 C 617.901 460.188 619.187 460.658 620.497 460.567 C 622.75 460.522 624.925 459.741 626.693 458.345 L 626.914 459.47 C 626.93 459.658 627.019 459.833 627.162 459.957 C 627.309 460.052 627.483 460.095 627.658 460.081 L 629.056 460.081 C 629.365 460.128 629.654 459.916 629.7 459.606 C 629.709 459.552 629.709 459.498 629.702 459.444 L 629.702 444.395 C 629.736 444.084 629.511 443.804 629.201 443.77 C 629.146 443.763 629.092 443.765 629.038 443.775 Z " fill-rule="evenodd" fill="rgb(0,0,0)"/><path d=" M 641.606 451.219 L 639.083 450.246 C 638.344 450.016 637.652 449.656 637.038 449.184 C 636.682 448.84 636.492 448.359 636.516 447.865 C 636.516 446.467 637.561 445.767 639.632 445.767 C 640.831 445.764 642.024 445.94 643.172 446.289 C 643.412 446.374 643.662 446.428 643.916 446.449 C 644.2 446.449 644.341 446.253 644.341 445.864 L 644.341 444.979 C 644.358 444.757 644.298 444.535 644.173 444.351 C 644.027 444.187 643.835 444.071 643.624 444.014 C 642.308 443.522 640.913 443.27 639.508 443.27 C 637.975 443.198 636.462 443.655 635.223 444.563 C 634.159 445.356 633.548 446.618 633.586 447.944 C 633.586 450.068 634.784 451.573 637.179 452.458 L 639.834 453.502 C 640.5 453.709 641.121 454.035 641.667 454.467 C 642.002 454.798 642.183 455.254 642.163 455.724 C 642.199 456.414 641.891 457.077 641.339 457.495 C 640.621 457.948 639.779 458.161 638.932 458.105 C 637.431 458.106 635.938 457.876 634.507 457.423 C 634.248 457.325 633.976 457.26 633.701 457.228 C 633.436 457.228 633.312 457.423 633.312 457.813 L 633.312 458.698 C 633.294 458.911 633.344 459.125 633.453 459.308 C 633.598 459.472 633.785 459.595 633.993 459.661 C 635.548 460.278 637.209 460.578 638.879 460.547 C 640.502 460.652 642.113 460.203 643.446 459.272 C 644.572 458.393 645.205 457.026 645.145 455.599 C 645.179 454.637 644.865 453.694 644.26 452.944 C 643.528 452.164 642.617 451.571 641.606 451.219 Z " fill-rule="evenodd" fill="rgb(0,0,0)"/><path d=" M 649.245 443.775 L 651.157 443.775 C 651.514 443.775 651.802 444.065 651.802 444.421 L 651.802 459.467 C 651.802 459.825 651.513 460.113 651.157 460.113 L 649.245 460.113 C 648.888 460.113 648.6 459.823 648.6 459.467 L 648.6 444.421 C 648.598 444.063 648.888 443.775 649.245 443.775 Z " fill="rgb(0,0,0)"/><path d=" M 650.219 437.003 C 649.677 436.972 649.146 437.164 648.749 437.535 C 648.027 438.33 648.027 439.545 648.749 440.341 C 649.601 441.048 650.836 441.048 651.688 440.341 C 652.41 439.546 652.41 438.332 651.688 437.535 C 651.292 437.164 650.76 436.972 650.219 437.003 Z " fill-rule="evenodd" fill="rgb(0,0,0)"/><path d=" M 667.673 457.308 C 667.507 457.32 667.344 457.354 667.186 457.405 C 666.242 457.692 665.261 457.845 664.274 457.857 C 662.857 457.98 661.458 457.479 660.441 456.484 C 659.627 455.576 659.22 454.145 659.22 452.191 L 659.22 451.775 C 659.22 449.775 659.621 448.317 660.424 447.403 C 661.221 446.517 662.53 446.04 664.336 446.04 C 665.235 446.042 666.129 446.17 666.992 446.42 C 667.161 446.476 667.337 446.509 667.513 446.517 C 667.788 446.517 667.929 446.305 667.929 445.872 L 667.929 444.987 C 667.949 444.762 667.9 444.536 667.788 444.341 C 667.652 444.191 667.478 444.081 667.284 444.022 C 666.184 443.619 665.021 443.412 663.849 443.412 C 661.648 443.275 659.495 444.09 657.937 445.651 C 656.547 447.137 655.847 449.254 655.847 451.979 C 655.847 454.704 656.529 456.829 657.874 458.282 C 659.423 459.817 661.557 460.613 663.733 460.468 C 664.997 460.493 666.253 460.26 667.425 459.787 C 667.627 459.723 667.807 459.6 667.938 459.433 C 668.04 459.246 668.085 459.034 668.071 458.823 L 668.071 457.937 C 668.098 457.503 667.956 457.308 667.673 457.308 Z " fill-rule="evenodd" fill="rgb(0,0,0)"/></g></g></g></svg>