<?xml version="1.0" encoding="UTF-8" standalone="no"?><!-- Generator: Gravit.io --><svg xmlns="http://www.w3.org/2000/svg" xmlns:xlink="http://www.w3.org/1999/xlink" style="isolation:isolate" viewBox="586.166 405.963 154.667 29.075" width="154.667pt" height="29.075pt"><defs><clipPath id="_clipPath_gshQ0xTtBB2wvANC5g2bDTAXfZ0ru5SN"><rect x="586.166" y="405.963" width="154.667" height="29.075"/></clipPath></defs><g clip-path="url(#_clipPath_gshQ0xTtBB2wvANC5g2bDTAXfZ0ru5SN)"><g><g><path d=" M 636.314 428.577 C 631.113 430.754 625.535 431.888 619.897 431.915 C 612.355 431.932 604.937 429.987 598.375 426.269 C 597.841 425.959 597.445 426.507 597.892 426.911 C 603.804 432.195 611.471 435.091 619.4 435.037 C 625.341 435.037 632.248 433.177 637.007 429.68 C 637.799 429.103 637.121 428.238 636.314 428.577 Z " fill-rule="evenodd" fill="rgb(0,0,0)"/><path d=" M 633.307 426.609 C 632.889 426.897 632.961 427.33 633.43 427.251 C 634.959 427.064 638.376 426.66 638.989 427.431 C 639.602 428.202 638.311 431.404 637.734 432.831 C 637.561 433.264 637.936 433.437 638.325 433.112 C 640.877 430.949 641.541 426.529 641.022 425.902 C 640.503 425.275 636.033 424.705 633.307 426.609 Z " fill-rule="evenodd" fill="rgb(0,0,0)"/><path d=" M 642.63 421.223 C 641.164 420.468 639.525 420.118 637.879 420.206 L 642.205 414.077 C 642.516 413.741 642.737 413.332 642.847 412.887 L 642.847 411.301 C 642.847 411.042 642.637 410.832 642.379 410.832 C 642.374 410.832 642.369 410.832 642.364 410.832 L 634.007 410.832 C 633.756 410.824 633.546 411.021 633.538 411.271 C 633.538 411.281 633.538 411.291 633.538 411.3 L 633.538 413.153 C 633.534 413.408 633.737 413.618 633.992 413.622 C 633.999 413.622 634.007 413.622 634.014 413.622 L 638.34 413.622 L 633.336 420.76 C 633.104 421.141 632.996 421.584 633.026 422.029 L 633.026 423.911 C 633.026 424.178 633.329 424.488 633.617 424.336 C 636.382 422.915 639.663 422.915 642.428 424.336 C 642.738 424.502 643.041 424.185 643.041 423.911 L 643.041 421.943 C 643.038 421.648 642.883 421.375 642.63 421.223 Z " fill-rule="evenodd" fill="rgb(0,0,0)"/><path d=" M 649.999 410.595 C 646.329 410.595 644.296 413.731 644.296 417.762 C 644.296 421.793 646.308 424.972 649.999 424.972 C 653.554 424.972 655.767 421.836 655.767 417.884 C 655.824 413.811 653.762 410.595 649.999 410.595 Z  M 649.999 422.311 C 648.009 422.311 648.038 418.937 648.038 417.35 C 648.038 415.764 648.153 413.24 650.021 413.24 C 650.809 413.187 651.516 413.722 651.679 414.495 C 651.973 415.614 652.101 416.771 652.061 417.927 C 652.061 419.586 651.967 422.311 649.999 422.311 Z " fill-rule="evenodd" fill="rgb(0,0,0)"/><path d=" M 622.124 416.832 C 620.448 417.506 619.367 419.15 619.413 420.956 C 619.413 423.58 621.079 424.893 623.213 424.893 C 624.82 424.982 626.374 424.299 627.395 423.054 C 627.776 423.692 628.264 424.261 628.837 424.734 C 629.032 424.841 629.272 424.818 629.443 424.676 C 629.443 424.676 630.885 423.443 631.39 423.01 C 631.575 422.829 631.579 422.532 631.398 422.347 C 631.395 422.344 631.393 422.342 631.39 422.339 C 630.789 421.706 630.449 420.869 630.438 419.996 L 630.438 416.066 C 630.438 414.4 630.553 412.872 629.32 411.74 C 628.251 410.882 626.912 410.432 625.542 410.471 C 623.127 410.471 620.437 411.365 619.868 414.336 C 619.822 414.579 619.982 414.812 620.224 414.858 C 620.233 414.86 620.241 414.861 620.25 414.862 L 622.68 415.122 C 622.896 415.122 623.105 414.913 623.156 414.632 C 623.371 413.701 624.237 413.068 625.189 413.147 C 625.746 413.127 626.28 413.37 626.631 413.803 C 627.064 414.38 626.941 415.966 626.941 415.966 C 625.419 416.125 623.494 416.233 622.124 416.832 Z  M 626.414 421.223 C 626.083 421.896 625.411 422.336 624.662 422.369 C 623.689 422.369 623.119 421.648 623.119 420.545 C 623.119 418.382 625.059 418 626.89 418 L 626.89 418.548 C 626.986 419.466 626.821 420.393 626.414 421.223 Z " fill-rule="evenodd" fill="rgb(0,0,0)"/><path d=" M 598.143 422.34 C 597.539 421.708 597.197 420.871 597.184 419.997 L 597.184 416.067 C 597.184 414.401 597.307 412.873 596.074 411.741 C 594.992 410.878 593.636 410.433 592.253 410.486 C 589.838 410.486 587.141 411.38 586.579 414.351 C 586.533 414.594 586.693 414.827 586.935 414.873 C 586.944 414.875 586.952 414.876 586.961 414.877 L 589.384 415.137 C 589.608 415.137 589.817 414.928 589.867 414.647 C 590.082 413.719 590.943 413.087 591.893 413.162 C 592.45 413.144 592.983 413.387 593.335 413.818 C 593.768 414.395 593.645 415.981 593.645 415.981 C 592.203 416.147 590.249 416.255 588.872 416.853 C 587.199 417.529 586.121 419.173 586.168 420.977 C 586.168 423.601 587.826 424.914 589.968 424.914 C 591.573 425.001 593.123 424.318 594.143 423.075 C 594.526 423.712 595.013 424.28 595.585 424.755 C 595.777 424.861 596.015 424.838 596.183 424.697 C 596.183 424.697 597.625 423.464 598.137 423.031 C 598.33 422.847 598.337 422.541 598.153 422.348 C 598.149 422.346 598.146 422.343 598.143 422.34 Z  M 593.168 421.223 C 592.836 421.899 592.161 422.338 591.409 422.369 C 590.436 422.369 589.866 421.648 589.866 420.545 C 589.866 418.382 591.806 418 593.644 418 L 593.644 418.548 C 593.74 419.466 593.575 420.393 593.168 421.223 Z " fill-rule="evenodd" fill="rgb(0,0,0)"/><path d=" M 600.609 424.712 L 603.14 424.712 C 603.401 424.708 603.612 424.497 603.616 424.236 L 603.616 417.379 C 603.616 415.879 603.544 413.774 605.368 413.774 C 607.192 413.774 606.933 415.937 606.933 417.379 L 606.933 424.243 C 606.94 424.493 607.137 424.697 607.387 424.712 L 609.918 424.712 C 610.181 424.72 610.4 424.514 610.408 424.251 C 610.408 424.249 610.408 424.246 610.408 424.244 L 610.408 417.38 C 610.354 416.546 610.435 415.708 610.646 414.9 C 610.895 414.277 611.49 413.861 612.16 413.84 C 612.881 413.737 613.548 414.237 613.652 414.958 C 613.738 415.763 613.762 416.572 613.724 417.381 L 613.724 424.245 C 613.731 424.495 613.928 424.699 614.178 424.714 L 616.709 424.714 C 616.972 424.722 617.191 424.516 617.199 424.253 C 617.199 424.251 617.199 424.248 617.199 424.246 L 617.199 416.077 C 617.199 414.685 617.365 413.106 616.557 412.018 C 615.272 410.395 612.914 410.12 611.29 411.406 C 610.764 411.823 610.359 412.373 610.118 412.999 C 609.397 411.362 608.409 410.598 606.823 410.598 C 605.294 410.54 603.921 411.53 603.492 412.999 L 603.442 412.999 L 603.442 411.338 C 603.438 411.078 603.226 410.869 602.966 410.869 L 600.608 410.869 C 600.348 410.869 600.136 411.078 600.132 411.338 L 600.132 424.237 C 600.137 424.498 600.348 424.709 600.609 424.712 Z " fill-rule="evenodd" fill="rgb(0,0,0)"/><path d=" M 664.476 410.595 C 662.724 410.595 661.729 411.439 661.022 413.212 L 660.972 413.212 L 660.972 411.236 C 660.923 411.014 660.723 410.86 660.496 410.868 L 658.153 410.868 C 657.894 410.868 657.684 411.078 657.684 411.337 L 657.684 411.337 L 657.684 424.236 C 657.684 424.496 657.893 424.708 658.153 424.712 L 660.691 424.712 C 660.951 424.708 661.16 424.496 661.16 424.236 L 661.16 417.271 C 661.117 416.427 661.257 415.583 661.571 414.798 C 661.831 414.222 662.383 413.833 663.013 413.781 C 663.597 413.781 664.599 413.86 664.599 416.478 L 664.599 424.301 C 664.63 424.528 664.818 424.7 665.046 424.712 L 667.591 424.712 C 667.833 424.718 668.041 424.541 668.074 424.301 L 668.074 416.175 C 668.074 414.92 668.074 413.176 667.418 412.145 C 666.783 411.142 665.663 410.552 664.476 410.595 Z " fill-rule="evenodd" fill="rgb(0,0,0)"/><path d=" M 690.671 411.085 C 688.775 411.137 686.944 411.791 685.444 412.952 C 684.867 411.707 683.759 411.085 682.12 411.085 C 680.338 411.146 678.618 411.75 677.188 412.815 L 677.029 411.979 C 677.015 411.827 676.946 411.686 676.834 411.582 C 676.71 411.508 676.567 411.473 676.423 411.481 L 675.291 411.481 C 675.039 411.442 674.803 411.615 674.765 411.867 C 674.758 411.914 674.758 411.961 674.765 412.008 L 674.765 424.265 C 674.73 424.517 674.907 424.75 675.159 424.785 C 675.203 424.791 675.247 424.791 675.291 424.784 L 676.848 424.784 C 677.1 424.822 677.335 424.649 677.373 424.397 C 677.38 424.353 677.38 424.309 677.374 424.265 L 677.374 414.344 C 678.52 413.597 679.856 413.194 681.224 413.183 C 681.823 413.132 682.411 413.367 682.81 413.817 C 683.185 414.391 683.36 415.073 683.308 415.757 L 683.308 424.265 C 683.273 424.517 683.45 424.75 683.702 424.785 C 683.746 424.791 683.79 424.791 683.834 424.784 L 685.384 424.784 C 685.64 424.822 685.878 424.645 685.916 424.389 C 685.922 424.348 685.923 424.306 685.918 424.265 L 685.918 414.733 C 685.926 414.601 685.926 414.469 685.918 414.336 C 687.077 413.591 688.42 413.182 689.797 413.154 C 690.395 413.101 690.982 413.337 691.376 413.788 C 691.757 414.359 691.935 415.043 691.881 415.728 L 691.881 424.236 C 691.846 424.488 692.023 424.721 692.275 424.756 C 692.319 424.762 692.363 424.762 692.407 424.755 L 693.964 424.755 C 694.216 424.793 694.451 424.62 694.489 424.368 C 694.496 424.324 694.496 424.28 694.49 424.236 L 694.49 415.021 C 694.551 413.97 694.202 412.936 693.517 412.137 C 692.765 411.393 691.727 411.01 690.671 411.085 Z " fill-rule="evenodd" fill="rgb(0,0,0)"/><path d=" M 709.035 411.482 L 707.478 411.482 C 707.226 411.443 706.99 411.616 706.952 411.868 C 706.945 411.915 706.945 411.962 706.952 412.009 L 706.952 421.822 C 705.829 422.613 704.496 423.052 703.123 423.084 C 702.463 423.143 701.811 422.896 701.357 422.413 C 700.94 421.802 700.744 421.067 700.802 420.329 L 700.802 412.008 C 700.841 411.756 700.668 411.52 700.416 411.482 C 700.369 411.475 700.322 411.475 700.275 411.482 L 698.718 411.482 C 698.466 411.443 698.23 411.616 698.192 411.868 C 698.185 411.915 698.185 411.962 698.192 412.009 L 698.192 421.166 C 698.128 422.24 698.488 423.296 699.194 424.108 C 699.963 424.852 701.011 425.235 702.078 425.161 C 703.913 425.124 705.685 424.488 707.125 423.351 L 707.305 424.267 C 707.318 424.42 707.391 424.563 707.507 424.664 C 707.627 424.741 707.769 424.776 707.911 424.765 L 709.05 424.765 C 709.302 424.803 709.537 424.63 709.575 424.378 C 709.582 424.334 709.582 424.29 709.576 424.246 L 709.576 411.987 C 709.604 411.734 709.421 411.506 709.168 411.478 C 709.123 411.472 709.079 411.474 709.035 411.482 Z " fill-rule="evenodd" fill="rgb(0,0,0)"/><path d=" M 719.273 417.546 L 717.218 416.753 C 716.616 416.566 716.052 416.273 715.552 415.888 C 715.262 415.608 715.107 415.216 715.127 414.814 C 715.127 413.675 715.978 413.105 717.665 413.105 C 718.642 413.102 719.614 413.246 720.549 413.53 C 720.744 413.599 720.948 413.643 721.155 413.66 C 721.386 413.66 721.501 413.501 721.501 413.184 L 721.501 412.463 C 721.515 412.282 721.466 412.101 721.364 411.951 C 721.245 411.818 721.089 411.723 720.917 411.677 C 719.845 411.276 718.709 411.071 717.564 411.071 C 716.315 411.012 715.083 411.384 714.074 412.124 C 713.207 412.77 712.709 413.798 712.74 414.878 C 712.74 416.608 713.716 417.834 715.667 418.555 L 717.83 419.406 C 718.372 419.574 718.878 419.84 719.323 420.192 C 719.596 420.461 719.743 420.833 719.727 421.216 C 719.756 421.778 719.505 422.318 719.056 422.658 C 718.471 423.027 717.785 423.201 717.095 423.155 C 715.872 423.156 714.656 422.969 713.49 422.6 C 713.279 422.52 713.058 422.467 712.834 422.441 C 712.618 422.441 712.517 422.6 712.517 422.917 L 712.517 423.638 C 712.502 423.812 712.543 423.986 712.632 424.135 C 712.75 424.269 712.902 424.369 713.072 424.423 C 714.338 424.925 715.691 425.17 717.052 425.144 C 718.374 425.23 719.686 424.864 720.772 424.106 C 721.689 423.39 722.205 422.276 722.156 421.114 C 722.184 420.33 721.928 419.562 721.435 418.951 C 720.839 418.316 720.097 417.833 719.273 417.546 Z " fill-rule="evenodd" fill="rgb(0,0,0)"/><path d=" M 725.496 411.482 L 727.053 411.482 C 727.344 411.482 727.579 411.718 727.579 412.008 L 727.579 424.265 C 727.579 424.556 727.343 424.791 727.053 424.791 L 725.496 424.791 C 725.205 424.791 724.97 424.555 724.97 424.265 L 724.97 412.008 C 724.969 411.717 725.205 411.482 725.496 411.482 Z " fill="rgb(0,0,0)"/><path d=" M 726.289 405.966 C 725.848 405.94 725.415 406.097 725.092 406.399 C 724.504 407.047 724.504 408.036 725.092 408.685 C 725.786 409.261 726.792 409.261 727.486 408.685 C 728.074 408.037 728.074 407.048 727.486 406.399 C 727.163 406.097 726.73 405.94 726.289 405.966 Z " fill-rule="evenodd" fill="rgb(0,0,0)"/><path d=" M 740.507 422.506 C 740.372 422.516 740.239 422.543 740.11 422.585 C 739.341 422.819 738.542 422.943 737.738 422.953 C 736.584 423.053 735.444 422.645 734.616 421.835 C 733.953 421.095 733.621 419.929 733.621 418.338 L 733.621 417.999 C 733.621 416.37 733.948 415.182 734.602 414.437 C 735.251 413.716 736.318 413.327 737.789 413.327 C 738.521 413.329 739.249 413.433 739.952 413.637 C 740.09 413.682 740.233 413.709 740.377 413.716 C 740.601 413.716 740.716 413.543 740.716 413.19 L 740.716 412.469 C 740.732 412.286 740.692 412.102 740.601 411.943 C 740.49 411.821 740.348 411.731 740.19 411.683 C 739.294 411.355 738.347 411.186 737.392 411.186 C 735.599 411.075 733.845 411.739 732.576 413.01 C 731.444 414.221 730.874 415.945 730.874 418.165 C 730.874 420.385 731.429 422.116 732.525 423.299 C 733.787 424.55 735.525 425.198 737.298 425.08 C 738.327 425.1 739.35 424.911 740.305 424.525 C 740.47 424.473 740.616 424.373 740.723 424.237 C 740.806 424.085 740.843 423.912 740.831 423.74 L 740.831 423.018 C 740.853 422.665 740.738 422.506 740.507 422.506 Z " fill-rule="evenodd" fill="rgb(0,0,0)"/></g></g></g></svg>