<?xml version="1.0" encoding="UTF-8" standalone="no"?>
<svg
   xmlns:dc="http://purl.org/dc/elements/1.1/"
   xmlns:cc="http://creativecommons.org/ns#"
   xmlns:rdf="http://www.w3.org/1999/02/22-rdf-syntax-ns#"
   xmlns:svg="http://www.w3.org/2000/svg"
   xmlns="http://www.w3.org/2000/svg"
   viewBox="0 0 2000 2000"
   height="2000"
   width="2000"
   xml:space="preserve"
   id="svg2"
   version="1.1"><metadata
     id="metadata8"><rdf:RDF><cc:Work
         rdf:about=""><dc:format>image/svg+xml</dc:format><dc:type
           rdf:resource="http://purl.org/dc/dcmitype/StillImage" /></cc:Work></rdf:RDF></metadata><defs
     id="defs6"><clipPath
       id="clipPath20"
       clipPathUnits="userSpaceOnUse"><path
         style="clip-rule:evenodd"
         id="path18"
         d="m 7500,500 c 3866,0 7000,3134.01 7000,7000 0,3866 -3134,7000 -7000,7000 C 3634.01,14500 500,11366 500,7500 500,3634.01 3634.01,500 7500,500 Z" /></clipPath><clipPath
       id="clipPath26"
       clipPathUnits="userSpaceOnUse"><path
         id="path24"
         d="M 0,0 H 15000 V 15000 H 0 Z" /></clipPath><clipPath
       id="clipPath36"
       clipPathUnits="userSpaceOnUse"><path
         style="clip-rule:evenodd"
         id="path34"
         d="M 3825.39,1540.9 C 1829.75,2774.11 500,4981.76 500,7500 c 0,3866 3134.01,7000 7000,7000 3866,0 7000,-3134 7000,-7000 0,-3865.99 -3134,-7000 -7000,-7000 -185.53,0 -369.37,7.219 -551.27,21.387 l 688.59,1891.883 c 113.93,313.02 494.25,732.36 829.63,1102.5 192.01,211.33 357.51,394.12 420.7,501.56 304.86,519.19 1234.75,2078.78 1244.15,2094.56 191.1,274.04 497.7,742.58 686.7,1048.39 l 1032.6,1677.54 c 188.9,306.65 203.2,691.51 31.8,857.61 -30.1,29.02 -65.3,51.06 -104.7,65.37 -189.3,68.91 -440.8,-42.8 -626.1,-277.95 l -1038,-1447.41 c -120.02,-152.53 -254.29,-277.62 -384.26,-398.7 -108.13,-100.73 -219.74,-205.09 -319.68,-321.42 l -106.03,-124 c -12.91,-14.85 -30.89,-23.98 -50.45,-25.27 -19.55,-1.29 -38.1,1.14 -55.05,7.31 -37.03,13.48 -96.64,55.74 -80.47,187.56 3.52,16.22 185.22,779.86 -296.67,983.32 l -21.06,8.01 c -260.46,94.79 -467.9,-68.08 -698.14,-341.96 -34.63,-41.14 -105.46,-45.01 -141.18,-32.01 -70.6,29.22 -101.79,91.81 -85.41,164.59 82.15,367.43 -69.34,711.05 -360.19,816.92 l -22.39,7.46 c -253.13,81.23 -558.57,-22.8 -741.73,-253.82 -6.78,-8.33 -14.67,-15 -23.98,-19.68 -36.38,-34.71 -98.83,-82.99 -166.76,-58.27 -72.74,26.48 -90.04,115.04 -96.59,179.46 l -8.18,79.9 c -7.91,79.12 -18.08,170.42 -29.65,268.48 -36.41,320.48 -81.84,719.47 -74.57,984.48 l 111.65,1883.6 c 7.75,275.1 -118.81,509.5 -314.76,580.8 -55.28,20.2 -113.44,26.4 -172.99,18.9 -277.02,-35.6 -514.94,-349.7 -541.95,-715.1 l -205.57,-1904.4 c -14.25,-192.69 -9.79,-462.01 -5.35,-722.34 3.29,-193.22 6.42,-375.7 1.85,-523.1 l -17.91,-607.38 c -6.4,-204.57 -71.71,-351.23 -194.44,-435.87 -67.67,-47.63 -295.4,-211.3 -541.68,-440.93 -27.04,-25.27 -54.41,-49.28 -81.24,-73.04 -181.79,-161.07 -338.56,-300.23 -353.65,-762.18 -7.95,-216.96 2.1,-437.52 33.37,-761.47 32.66,-340.15 133.15,-553.52 239.8,-779.35 151.91,-321.85 450.12,-800.22 249.31,-1351.94 -1.6,-4.41 -485.81,-1334.75 -732.71,-2013.1 z" /></clipPath><clipPath
       id="clipPath42"
       clipPathUnits="userSpaceOnUse"><path
         id="path40"
         d="M 0,0 H 15000 V 15000 H 0 Z" /></clipPath></defs><g
     transform="matrix(1.3333333,0,0,-1.3333333,0,2000)"
     id="g10"><g
       transform="scale(0.1)"
       id="g12"><g
         id="g14"><g
           clip-path="url(#clipPath20)"
           id="g16"><g
             clip-path="url(#clipPath26)"
             id="g22"><path
               id="path28"
               style="fill:#ffffff;fill-opacity:1;fill-rule:nonzero;stroke:none"
               d="M 450,450 H 14550 V 14550 H 450 Z" /></g></g></g><g
         id="g30"><g
           clip-path="url(#clipPath36)"
           id="g32"><g
             clip-path="url(#clipPath42)"
             id="g38"><path
               id="path44"
               style="fill:#002eff;fill-opacity:1;fill-rule:nonzero;stroke:none"
               d="M 450,450 H 14550 V 14550 H 450 Z" /></g></g></g></g></g></svg>