<?xml version="1.0" encoding="UTF-8" standalone="no"?>
<svg
   xmlns:svg="http://www.w3.org/2000/svg"
   xmlns="http://www.w3.org/2000/svg"
   version="1.1"
   viewBox="0 2 16 20"
   style="fill:#1ab7ea"
   id="svg2">
  <path
     d="m 15.72,9.431 c -0.069,1.514 -1.127,3.588 -3.172,6.22 -2.114,2.749 -3.903,4.124 -5.367,4.124 -0.906,0 -1.673,-0.837 -2.3,-2.512 C 4.463,15.728 4.044,14.194 3.626,12.659 3.161,10.985 2.662,10.147 2.128,10.147 c -0.116,0 -0.524,0.245 -1.221,0.733 L 0.176,9.937 C 0.943,9.263 1.7,8.588 2.445,7.912 3.469,7.028 4.237,6.562 4.75,6.515 5.96,6.399 6.705,7.227 6.985,8.998 c 0.302,1.912 0.511,3.101 0.628,3.566 0.349,1.586 0.733,2.378 1.152,2.378 0.326,0 0.815,-0.515 1.467,-1.543 0.651,-1.029 1,-1.812 1.047,-2.349 0.093,-0.888 -0.256,-1.333 -1.047,-1.333 -0.373,0 -0.757,0.085 -1.151,0.255 0.764,-2.504 2.224,-3.721 4.38,-3.652 1.598,0.047 2.351,1.084 2.259,3.111"
     id="path4" />
</svg>
