<svg xmlns="http://www.w3.org/2000/svg" xmlns:xlink="http://www.w3.org/1999/xlink" xmlns:v="https://vecta.io/nano" preserveAspectRatio="xMidYMid meet" viewBox="1.82 0.4 155.92 109.2">
	<path d="M154.3 17.5a19.6 19.6 0 0 0-13.8-13.8C128.4.4 79.7.4 79.7.4S31 .5 18.9 3.8A19.6 19.6 0 0 0 5.1 17.6C1.44 39.1.02 71.86 5.2 92.5A19.6 19.6 0 0 0 19 106.3c12.1 3.3 60.8 3.3 60.8 3.3s48.7 0 60.8-3.3a19.6 19.6 0 0 0 13.8-13.8c3.86-21.53 5.05-54.27-.1-75z" fill="red"/>
	<path fill="#fff" d="M64.2 78.4L104.6 55 64.2 31.6z"/>
</svg>